<?xml version="1.0" standalone="no"?>
<!DOCTYPE svg PUBLIC "-//W3C//DTD SVG 20010904//EN"
 "http://www.w3.org/TR/2001/REC-SVG-20010904/DTD/svg10.dtd">
<svg version="1.0" xmlns="http://www.w3.org/2000/svg"
 width="180.000000pt" height="180.000000pt" viewBox="0 0 180.000000 180.000000"
 preserveAspectRatio="xMidYMid meet">
<metadata>
Created by potrace 1.11, written by Peter Selinger 2001-2013
</metadata>
<g transform="translate(0.000000,180.000000) scale(0.100000,-0.100000)"
fill="#000000" stroke="none">
<path d="M889 1658 c-8 -12 -19 -32 -25 -43 -30 -50 -64 -120 -64 -131 0 -6
-7 -17 -15 -24 -9 -7 -13 -15 -11 -18 3 -2 -1 -20 -9 -38 -8 -19 -12 -34 -10
-34 3 0 0 -11 -5 -25 -11 -30 -26 -127 -29 -192 -1 -16 -16 -29 -58 -50 -111
-55 -229 -199 -264 -323 -7 -25 -14 -88 -15 -140 -2 -52 -3 -98 -4 -102 0 -4
-24 -23 -53 -42 -57 -38 -154 -130 -196 -186 -14 -19 -28 -37 -32 -40 -3 -3
-27 -40 -53 -84 l-47 -78 133 5 c141 5 161 8 236 34 26 8 52 16 57 18 19 4 70
25 107 44 37 19 38 19 62 0 13 -10 29 -19 34 -19 6 0 12 -4 14 -8 2 -5 35 -22
73 -37 58 -24 87 -29 172 -32 56 -1 117 2 135 8 41 13 51 16 61 18 15 2 103
50 126 69 25 19 25 19 85 -8 88 -39 100 -44 111 -45 6 0 15 -3 20 -6 6 -4 28
-10 50 -14 22 -5 47 -10 55 -13 8 -2 73 -6 143 -9 l129 -5 -18 33 c-66 131
-211 297 -316 364 l-46 29 1 85 c0 74 -2 100 -17 156 -32 130 -137 263 -258
330 -57 31 -68 41 -69 63 -3 111 -40 248 -100 372 -29 58 -57 113 -64 123 -13
18 -14 18 -26 -5z m66 -343 c8 -33 16 -80 17 -104 l3 -45 -75 0 c-84 -1 -78
-8 -66 86 5 43 26 115 56 193 l12 30 19 -50 c10 -27 26 -77 34 -110z m21 -290
c0 -26 -5 -57 -22 -143 -7 -35 -44 -131 -53 -136 -6 -4 -44 95 -43 114 0 3 -4
15 -9 26 -8 24 -20 90 -23 140 l-3 31 76 -1 76 -1 1 -30z m-249 -43 c7 -55 34
-163 58 -229 13 -37 23 -68 21 -70 -1 -1 -37 -9 -79 -17 -43 -8 -82 -18 -87
-21 -6 -3 -20 -8 -32 -11 -36 -8 -41 -10 -78 -26 -45 -19 -51 -10 -45 67 7 95
50 188 120 261 26 28 109 84 115 78 2 -3 6 -17 7 -32z m470 -45 c29 -27 53
-56 53 -63 0 -8 4 -14 9 -14 30 0 88 -258 58 -261 -4 0 -42 11 -85 25 -87 29
-212 57 -223 50 -15 -9 -18 13 -4 39 8 15 11 27 8 27 -3 0 -1 6 4 13 6 6 14
26 18 42 5 17 9 35 11 40 7 24 15 62 20 85 11 66 13 76 13 88 1 20 57 -13 118
-71z m-142 -371 c22 -4 58 -12 80 -18 22 -6 42 -12 45 -12 3 -1 31 -12 62 -25
l57 -23 -14 -34 c-7 -18 -23 -43 -34 -56 -12 -12 -21 -25 -21 -30 0 -13 -17
-9 -34 7 -8 8 -18 15 -23 15 -12 0 -173 168 -173 181 0 6 3 8 8 6 4 -3 25 -8
47 -11z m-255 -3 c0 -12 -109 -125 -163 -167 -38 -31 -50 -36 -62 -26 -15 13
-65 97 -65 111 0 13 125 63 184 73 16 3 30 7 32 8 7 8 74 8 74 1z m136 -80
c33 -44 124 -134 172 -171 l34 -26 -34 -18 c-79 -43 -178 -60 -260 -46 -29 5
-60 10 -68 10 -21 0 -97 35 -105 48 -4 7 3 19 16 28 41 28 143 129 174 171 17
22 33 41 36 41 4 0 19 -17 35 -37z m-485 -110 c19 -32 34 -62 34 -66 0 -7
-131 -69 -138 -65 -1 1 -24 -4 -52 -10 -75 -18 -105 -21 -105 -14 0 24 197
212 221 212 4 0 22 -26 40 -57z m959 47 c0 -5 5 -10 10 -10 26 0 190 -165 190
-190 0 -12 -4 -12 -60 1 -25 6 -52 12 -60 14 -24 6 -122 41 -152 55 l-28 13
25 33 c14 18 25 36 25 41 0 5 7 19 16 31 16 23 34 29 34 12z"/>
</g>
</svg>
